<svg width="320" height="80" viewBox="0 0 320 80" fill="none" xmlns="http://www.w3.org/2000/svg">
<rect width="320" height="80" rx="40" fill="black" fill-opacity="0.6"/>
<circle cx="80.25" cy="40" r="28.5" fill="white" stroke="#5061D0" stroke-width="3"/>
<rect x="69.25" y="29" width="22" height="22" rx="4" fill="#5061D0"/>
<rect x="126.25" y="28" width="143.5" height="24" rx="4" fill="white" fill-opacity="0.2"/>
<rect x="126" y="28" width="47" height="24" rx="4" fill="#5061D0"/>
<path d="M186.29 34.716C186.866 34.716 187.378 34.7987 187.826 34.964C188.274 35.124 188.653 35.3427 188.962 35.62C189.271 35.8973 189.506 36.22 189.666 36.588C189.826 36.9507 189.906 37.3347 189.906 37.74C189.906 38.108 189.869 38.4333 189.794 38.716C189.719 38.9933 189.607 39.236 189.458 39.444C189.314 39.6467 189.133 39.82 188.914 39.964C188.701 40.108 188.455 40.228 188.178 40.324C189.469 40.772 190.114 41.6493 190.114 42.956C190.114 43.5747 190.002 44.1133 189.778 44.572C189.554 45.0307 189.253 45.412 188.874 45.716C188.501 46.02 188.066 46.2493 187.57 46.404C187.074 46.5533 186.557 46.628 186.018 46.628C185.463 46.628 184.97 46.5693 184.538 46.452C184.106 46.3293 183.722 46.1427 183.386 45.892C183.05 45.636 182.754 45.3107 182.498 44.916C182.247 44.5213 182.029 44.052 181.842 43.508L182.946 43.06C183.042 43.0173 183.135 42.988 183.226 42.972C183.322 42.956 183.415 42.948 183.506 42.948C183.677 42.948 183.829 42.9827 183.962 43.052C184.101 43.116 184.205 43.212 184.274 43.34C184.514 43.7827 184.767 44.1053 185.034 44.308C185.306 44.5053 185.623 44.604 185.986 44.604C186.263 44.604 186.503 44.5587 186.706 44.468C186.914 44.372 187.085 44.252 187.218 44.108C187.357 43.9587 187.461 43.7907 187.53 43.604C187.599 43.4173 187.634 43.228 187.634 43.036C187.634 42.7853 187.615 42.5613 187.578 42.364C187.546 42.1613 187.45 41.988 187.29 41.844C187.13 41.7 186.887 41.5907 186.562 41.516C186.242 41.436 185.794 41.396 185.218 41.396V39.684C185.703 39.684 186.095 39.6467 186.394 39.572C186.693 39.4973 186.922 39.396 187.082 39.268C187.247 39.1347 187.357 38.9747 187.41 38.788C187.463 38.6013 187.49 38.396 187.49 38.172C187.49 37.7133 187.378 37.3613 187.154 37.116C186.935 36.8653 186.599 36.74 186.146 36.74C185.959 36.74 185.789 36.7667 185.634 36.82C185.479 36.8733 185.341 36.9453 185.218 37.036C185.095 37.1267 184.989 37.2333 184.898 37.356C184.813 37.4787 184.743 37.612 184.69 37.756C184.605 37.996 184.495 38.1693 184.362 38.276C184.234 38.3827 184.058 38.436 183.834 38.436C183.781 38.436 183.722 38.4333 183.658 38.428C183.599 38.4227 183.538 38.4147 183.474 38.404L182.162 38.172C182.247 37.5907 182.41 37.084 182.65 36.652C182.895 36.22 183.197 35.86 183.554 35.572C183.917 35.284 184.33 35.0707 184.794 34.932C185.258 34.788 185.757 34.716 186.29 34.716ZM191.011 45.244C191.011 45.052 191.046 44.8733 191.115 44.708C191.19 44.5427 191.289 44.3987 191.411 44.276C191.539 44.1533 191.689 44.0573 191.859 43.988C192.03 43.9133 192.217 43.876 192.419 43.876C192.617 43.876 192.801 43.9133 192.971 43.988C193.142 44.0573 193.291 44.1533 193.419 44.276C193.547 44.3987 193.646 44.5427 193.715 44.708C193.79 44.8733 193.827 45.052 193.827 45.244C193.827 45.436 193.79 45.6173 193.715 45.788C193.646 45.9533 193.547 46.0973 193.419 46.22C193.291 46.3427 193.142 46.4387 192.971 46.508C192.801 46.5773 192.617 46.612 192.419 46.612C192.217 46.612 192.03 46.5773 191.859 46.508C191.689 46.4387 191.539 46.3427 191.411 46.22C191.289 46.0973 191.19 45.9533 191.115 45.788C191.046 45.6173 191.011 45.436 191.011 45.244ZM196.329 44.708H198.569V38.828C198.569 38.54 198.577 38.2387 198.593 37.924L197.273 39.02C197.187 39.0893 197.102 39.14 197.017 39.172C196.931 39.1987 196.849 39.212 196.769 39.212C196.63 39.212 196.505 39.1827 196.393 39.124C196.286 39.06 196.206 38.9933 196.153 38.924L195.368 37.884L199.001 34.836H201.049V44.708H202.969V46.5H196.329V44.708ZM212.72 40.02C212.656 40.1213 212.586 40.1933 212.512 40.236C212.442 40.2787 212.352 40.3 212.24 40.3C212.122 40.3 212.005 40.276 211.888 40.228C211.77 40.1747 211.642 40.1187 211.504 40.06C211.37 40.0013 211.218 39.948 211.048 39.9C210.877 39.8467 210.682 39.82 210.464 39.82C210.149 39.82 209.906 39.8813 209.736 40.004C209.57 40.1213 209.488 40.2867 209.488 40.5C209.488 40.6547 209.541 40.7827 209.648 40.884C209.76 40.9853 209.906 41.076 210.088 41.156C210.269 41.2307 210.474 41.3027 210.704 41.372C210.933 41.4413 211.168 41.5187 211.408 41.604C211.648 41.6893 211.882 41.7907 212.112 41.908C212.341 42.02 212.546 42.1613 212.728 42.332C212.909 42.4973 213.053 42.7 213.16 42.94C213.272 43.18 213.328 43.468 213.328 43.804C213.328 44.2147 213.253 44.5933 213.104 44.94C212.954 45.2867 212.73 45.5853 212.432 45.836C212.138 46.0867 211.773 46.2813 211.336 46.42C210.904 46.5587 210.405 46.628 209.84 46.628C209.557 46.628 209.274 46.6013 208.992 46.548C208.709 46.4947 208.434 46.4227 208.168 46.332C207.906 46.2413 207.664 46.1347 207.44 46.012C207.216 45.884 207.024 45.748 206.864 45.604L207.44 44.692C207.509 44.5853 207.592 44.5027 207.688 44.444C207.784 44.38 207.909 44.348 208.064 44.348C208.208 44.348 208.336 44.38 208.448 44.444C208.565 44.508 208.69 44.5773 208.824 44.652C208.957 44.7267 209.112 44.796 209.288 44.86C209.469 44.924 209.696 44.956 209.968 44.956C210.16 44.956 210.322 44.9373 210.456 44.9C210.589 44.8573 210.696 44.8013 210.776 44.732C210.856 44.6627 210.914 44.5853 210.952 44.5C210.989 44.4147 211.008 44.3267 211.008 44.236C211.008 44.0707 210.952 43.9347 210.84 43.828C210.728 43.7213 210.581 43.6307 210.4 43.556C210.218 43.476 210.01 43.404 209.776 43.34C209.546 43.2707 209.312 43.1933 209.072 43.108C208.832 43.0227 208.594 42.9213 208.36 42.804C208.13 42.6813 207.925 42.5293 207.743 42.348C207.562 42.1613 207.416 41.9347 207.304 41.668C207.192 41.4013 207.136 41.0787 207.136 40.7C207.136 40.348 207.202 40.0147 207.336 39.7C207.474 39.38 207.68 39.1 207.952 38.86C208.224 38.62 208.565 38.4307 208.976 38.292C209.386 38.148 209.866 38.076 210.416 38.076C210.714 38.076 211.002 38.1027 211.28 38.156C211.562 38.2093 211.826 38.284 212.072 38.38C212.317 38.476 212.541 38.5907 212.744 38.724C212.946 38.852 213.125 38.9933 213.28 39.148L212.72 40.02Z" fill="white"/>
</svg>
