<svg width="320" height="80" viewBox="0 0 320 80" fill="none" xmlns="http://www.w3.org/2000/svg">
<rect width="320" height="80" rx="40" fill="black" fill-opacity="0.6"/>
<circle cx="80.25" cy="40" r="28.5" fill="white" stroke="#5061D0" stroke-width="3"/>
<rect x="69.25" y="29" width="22" height="22" rx="4" fill="#5061D0"/>
<rect x="126.25" y="28" width="143.5" height="24" rx="4" fill="white" fill-opacity="0.2"/>
<rect x="126" y="28" width="47" height="24" rx="4" fill="#5061D0"/>
<path d="M182.042 38.164C182.127 37.5987 182.287 37.1027 182.522 36.676C182.757 36.2493 183.05 35.8947 183.402 35.612C183.754 35.3293 184.154 35.1187 184.602 34.98C185.055 34.836 185.543 34.764 186.066 34.764C186.621 34.764 187.117 34.844 187.554 35.004C187.997 35.1587 188.37 35.372 188.674 35.644C188.978 35.916 189.21 36.2333 189.37 36.596C189.535 36.9587 189.618 37.348 189.618 37.764C189.618 38.132 189.578 38.4573 189.498 38.74C189.423 39.0173 189.309 39.26 189.154 39.468C189.005 39.676 188.818 39.852 188.594 39.996C188.375 40.14 188.122 40.26 187.834 40.356C189.167 40.7933 189.834 41.6813 189.834 43.02C189.834 43.612 189.725 44.1347 189.506 44.588C189.287 45.036 188.994 45.412 188.626 45.716C188.258 46.02 187.829 46.2493 187.338 46.404C186.853 46.5533 186.343 46.628 185.81 46.628C185.245 46.628 184.746 46.564 184.314 46.436C183.882 46.308 183.501 46.116 183.17 45.86C182.845 45.604 182.565 45.284 182.33 44.9C182.095 44.5107 181.89 44.0573 181.714 43.54L182.69 43.14C182.946 43.0333 183.183 43.004 183.402 43.052C183.626 43.1 183.786 43.2173 183.882 43.404C183.989 43.6067 184.101 43.7933 184.218 43.964C184.341 44.1347 184.477 44.284 184.626 44.412C184.775 44.5347 184.943 44.6307 185.13 44.7C185.322 44.7693 185.541 44.804 185.786 44.804C186.095 44.804 186.365 44.7533 186.594 44.652C186.823 44.5507 187.015 44.42 187.17 44.26C187.325 44.0947 187.439 43.9107 187.514 43.708C187.594 43.5 187.634 43.2947 187.634 43.092C187.634 42.8253 187.61 42.5853 187.562 42.372C187.514 42.1533 187.402 41.9693 187.226 41.82C187.055 41.6653 186.799 41.548 186.458 41.468C186.122 41.3827 185.663 41.34 185.082 41.34V39.788C185.567 39.788 185.965 39.748 186.274 39.668C186.583 39.588 186.826 39.476 187.002 39.332C187.178 39.188 187.298 39.0147 187.362 38.812C187.431 38.6093 187.466 38.388 187.466 38.148C187.466 37.6413 187.333 37.2547 187.066 36.988C186.805 36.7213 186.431 36.588 185.946 36.588C185.733 36.588 185.535 36.62 185.354 36.684C185.178 36.7427 185.018 36.8253 184.874 36.932C184.735 37.0387 184.615 37.164 184.514 37.308C184.413 37.452 184.338 37.6093 184.29 37.78C184.189 38.0467 184.058 38.2253 183.898 38.316C183.738 38.4013 183.506 38.42 183.202 38.372L182.042 38.164ZM191.131 45.34C191.131 45.164 191.163 44.9987 191.227 44.844C191.297 44.684 191.39 44.548 191.507 44.436C191.625 44.3187 191.761 44.228 191.915 44.164C192.075 44.0947 192.249 44.06 192.435 44.06C192.617 44.06 192.787 44.0947 192.947 44.164C193.107 44.228 193.246 44.3187 193.363 44.436C193.481 44.548 193.571 44.684 193.635 44.844C193.705 44.9987 193.739 45.164 193.739 45.34C193.739 45.5213 193.705 45.6893 193.635 45.844C193.571 45.9987 193.481 46.1347 193.363 46.252C193.246 46.364 193.107 46.452 192.947 46.516C192.787 46.58 192.617 46.612 192.435 46.612C192.249 46.612 192.075 46.58 191.915 46.516C191.761 46.452 191.625 46.364 191.507 46.252C191.39 46.1347 191.297 45.9987 191.227 45.844C191.163 45.6893 191.131 45.5213 191.131 45.34ZM202.68 44.876V46.5H196.168V44.876H198.472V38.524C198.472 38.3853 198.474 38.244 198.48 38.1C198.485 37.956 198.493 37.8093 198.504 37.66L196.984 38.924C196.877 39.004 196.773 39.0547 196.672 39.076C196.57 39.0973 196.474 39.1 196.384 39.084C196.293 39.0627 196.213 39.0307 196.144 38.988C196.074 38.94 196.021 38.892 195.984 38.844L195.288 37.908L198.856 34.884H200.672V44.876H202.68ZM213.462 39.948C213.403 40.0387 213.342 40.1053 213.278 40.148C213.219 40.1853 213.137 40.204 213.03 40.204C212.923 40.204 212.814 40.1773 212.702 40.124C212.59 40.0707 212.465 40.0147 212.326 39.956C212.187 39.892 212.027 39.8333 211.846 39.78C211.67 39.7267 211.465 39.7 211.23 39.7C210.873 39.7 210.595 39.7747 210.398 39.924C210.201 40.068 210.102 40.26 210.102 40.5C210.102 40.6653 210.158 40.804 210.27 40.916C210.382 41.028 210.529 41.1267 210.71 41.212C210.897 41.292 211.107 41.3693 211.342 41.444C211.577 41.5133 211.817 41.5907 212.062 41.676C212.313 41.7613 212.555 41.86 212.79 41.972C213.025 42.084 213.233 42.2253 213.414 42.396C213.601 42.5613 213.75 42.764 213.862 43.004C213.974 43.2387 214.03 43.524 214.03 43.86C214.03 44.26 213.955 44.6307 213.806 44.972C213.662 45.308 213.449 45.5987 213.166 45.844C212.883 46.0893 212.531 46.2813 212.11 46.42C211.689 46.5587 211.203 46.628 210.654 46.628C210.371 46.628 210.091 46.6013 209.814 46.548C209.537 46.5 209.273 46.4307 209.022 46.34C208.771 46.244 208.537 46.1347 208.318 46.012C208.099 45.8893 207.91 45.756 207.75 45.612L208.262 44.788C208.321 44.692 208.393 44.6173 208.478 44.564C208.569 44.5107 208.683 44.484 208.822 44.484C208.955 44.484 209.078 44.5187 209.19 44.588C209.302 44.652 209.427 44.724 209.566 44.804C209.705 44.8787 209.867 44.9507 210.054 45.02C210.246 45.084 210.483 45.116 210.766 45.116C210.979 45.116 211.163 45.092 211.318 45.044C211.473 44.996 211.598 44.932 211.694 44.852C211.79 44.7667 211.859 44.6733 211.902 44.572C211.95 44.4653 211.974 44.356 211.974 44.244C211.974 44.0627 211.915 43.916 211.798 43.804C211.686 43.6867 211.537 43.5853 211.35 43.5C211.169 43.4147 210.958 43.3373 210.718 43.268C210.478 43.1987 210.233 43.1213 209.982 43.036C209.737 42.9507 209.494 42.8493 209.254 42.732C209.019 42.6147 208.809 42.468 208.622 42.292C208.441 42.1107 208.291 41.8893 208.174 41.628C208.062 41.3667 208.006 41.0493 208.006 40.676C208.006 40.3347 208.073 40.012 208.206 39.708C208.339 39.3987 208.539 39.1267 208.806 38.892C209.073 38.6573 209.403 38.4707 209.798 38.332C210.198 38.1933 210.659 38.124 211.182 38.124C211.769 38.124 212.302 38.22 212.782 38.412C213.262 38.604 213.657 38.8547 213.966 39.164L213.462 39.948Z" fill="white"/>
</svg>
