<svg width="80" height="80" viewBox="0 0 80 80" fill="none" xmlns="http://www.w3.org/2000/svg">
<rect width="80" height="80" rx="40" fill="black" fill-opacity="0.6"/>
<path fill-rule="evenodd" clip-rule="evenodd" d="M43.6799 28.05C44.4355 28.2833 45.1577 28.5833 45.8466 28.95L48.9016 27.1166C49.2201 26.9256 49.5934 26.8464 49.9621 26.8917C50.3308 26.937 50.6738 27.1042 50.9366 27.3666L52.6333 29.0633C52.8957 29.3261 53.0629 29.6691 53.1082 30.0378C53.1535 30.4065 53.0743 30.7798 52.8833 31.0983L51.0499 34.1533C51.4166 34.8422 51.7166 35.5644 51.9499 36.32L55.4049 37.185C55.7653 37.2753 56.0852 37.4834 56.3138 37.7763C56.5424 38.0692 56.6666 38.4301 56.6666 38.8016V41.1983C56.6666 41.5699 56.5424 41.9308 56.3138 42.2237C56.0852 42.5166 55.7653 42.7247 55.4049 42.815L51.9499 43.68C51.7166 44.4355 51.4166 45.1578 51.0499 45.8466L52.8833 48.9016C53.0743 49.2202 53.1535 49.5935 53.1082 49.9621C53.0629 50.3308 52.8957 50.6738 52.6333 50.9366L50.9366 52.6333C50.6738 52.8958 50.3308 53.063 49.9621 53.1083C49.5934 53.1535 49.2201 53.0744 48.9016 52.8833L45.8466 51.05C45.1577 51.4166 44.4355 51.7166 43.6799 51.95L42.8149 55.405C42.7246 55.7654 42.5165 56.0853 42.2236 56.3139C41.9307 56.5425 41.5698 56.6666 41.1983 56.6666H38.8016C38.43 56.6666 38.0691 56.5425 37.7762 56.3139C37.4833 56.0853 37.2752 55.7654 37.1849 55.405L36.3199 51.95C35.5711 51.7186 34.8457 51.4172 34.1533 51.05L31.0983 52.8833C30.7797 53.0744 30.4064 53.1535 30.0378 53.1083C29.6691 53.063 29.3261 52.8958 29.0633 52.6333L27.3666 50.9366C27.1041 50.6738 26.9369 50.3308 26.8916 49.9621C26.8464 49.5935 26.9255 49.2202 27.1166 48.9016L28.9499 45.8466C28.5827 45.1542 28.2813 44.4288 28.0499 43.68L24.5949 42.815C24.2348 42.7248 23.9151 42.5169 23.6865 42.2243C23.458 41.9317 23.3336 41.5712 23.3333 41.2V38.8033C23.3333 38.4318 23.4574 38.0709 23.686 37.778C23.9146 37.4851 24.2345 37.2769 24.5949 37.1866L28.0499 36.3216C28.2833 35.5661 28.5833 34.8439 28.9499 34.155L27.1166 31.1C26.9255 30.7814 26.8464 30.4082 26.8916 30.0395C26.9369 29.6708 27.1041 29.3278 27.3666 29.065L29.0633 27.3666C29.3261 27.1042 29.6691 26.937 30.0378 26.8917C30.4064 26.8464 30.7797 26.9256 31.0983 27.1166L34.1533 28.95C34.8421 28.5833 35.5644 28.2833 36.3199 28.05L37.1849 24.595C37.2751 24.2348 37.483 23.9151 37.7756 23.6866C38.0682 23.458 38.4287 23.3337 38.7999 23.3333H41.1966C41.5681 23.3333 41.929 23.4575 42.2219 23.6861C42.5148 23.9147 42.723 24.2346 42.8133 24.595L43.6799 28.05ZM39.9999 46.6666C41.768 46.6666 43.4637 45.9643 44.714 44.714C45.9642 43.4638 46.6666 41.7681 46.6666 40C46.6666 38.2319 45.9642 36.5362 44.714 35.2859C43.4637 34.0357 41.768 33.3333 39.9999 33.3333C38.2318 33.3333 36.5361 34.0357 35.2859 35.2859C34.0356 36.5362 33.3333 38.2319 33.3333 40C33.3333 41.7681 34.0356 43.4638 35.2859 44.714C36.5361 45.9643 38.2318 46.6666 39.9999 46.6666Z" fill="white"/>
</svg>
