<svg width="80" height="80" viewBox="0 0 80 80" fill="none" xmlns="http://www.w3.org/2000/svg">
<rect width="80" height="80" rx="40" fill="black" fill-opacity="0.6"/>
<path fill-rule="evenodd" clip-rule="evenodd" d="M44.416 25.66C45.3227 25.94 46.1893 26.3 47.016 26.74L50.682 24.54C51.0643 24.3107 51.5122 24.2157 51.9546 24.2701C52.397 24.3244 52.8086 24.525 53.124 24.84L55.16 26.876C55.475 27.1914 55.6756 27.603 55.7299 28.0454C55.7843 28.4878 55.6893 28.9357 55.46 29.318L53.26 32.984C53.7 33.8107 54.06 34.6773 54.34 35.584L58.486 36.622C58.9185 36.7303 59.3024 36.9801 59.5767 37.3316C59.851 37.6831 60 38.1161 60 38.562V41.438C60 41.8839 59.851 42.3169 59.5767 42.6684C59.3024 43.0199 58.9185 43.2697 58.486 43.378L54.34 44.416C54.06 45.3227 53.7 46.1893 53.26 47.016L55.46 50.682C55.6893 51.0643 55.7843 51.5122 55.7299 51.9546C55.6756 52.397 55.475 52.8086 55.16 53.124L53.124 55.16C52.8086 55.475 52.397 55.6756 51.9546 55.7299C51.5122 55.7843 51.0643 55.6893 50.682 55.46L47.016 53.26C46.1893 53.7 45.3227 54.06 44.416 54.34L43.378 58.486C43.2697 58.9185 43.0199 59.3024 42.6684 59.5767C42.3169 59.851 41.8839 60 41.438 60H38.562C38.1161 60 37.6831 59.851 37.3316 59.5767C36.9801 59.3024 36.7303 58.9185 36.622 58.486L35.584 54.34C34.6854 54.0623 33.8149 53.7007 32.984 53.26L29.318 55.46C28.9357 55.6893 28.4878 55.7843 28.0454 55.7299C27.603 55.6756 27.1914 55.475 26.876 55.16L24.84 53.124C24.525 52.8086 24.3244 52.397 24.2701 51.9546C24.2157 51.5122 24.3107 51.0643 24.54 50.682L26.74 47.016C26.2993 46.1851 25.9377 45.3146 25.66 44.416L21.514 43.378C21.0818 43.2697 20.6982 43.0203 20.4239 42.6692C20.1497 42.3181 20.0005 41.8855 20 41.44V38.564C20 38.1181 20.149 37.6851 20.4233 37.3336C20.6976 36.9821 21.0815 36.7323 21.514 36.624L25.66 35.586C25.94 34.6793 26.3 33.8127 26.74 32.986L24.54 29.32C24.3107 28.9377 24.2157 28.4898 24.2701 28.0474C24.3244 27.605 24.525 27.1934 24.84 26.878L26.876 24.84C27.1914 24.525 27.603 24.3244 28.0454 24.2701C28.4878 24.2157 28.9357 24.3107 29.318 24.54L32.984 26.74C33.8107 26.3 34.6773 25.94 35.584 25.66L36.622 21.514C36.7303 21.0818 36.9797 20.6982 37.3308 20.4239C37.6819 20.1497 38.1145 20.0005 38.56 20H41.436C41.8819 20 42.3149 20.149 42.6664 20.4233C43.0179 20.6976 43.2677 21.0815 43.376 21.514L44.416 25.66ZM40 48C42.1217 48 44.1566 47.1571 45.6569 45.6569C47.1571 44.1566 48 42.1217 48 40C48 37.8783 47.1571 35.8434 45.6569 34.3431C44.1566 32.8429 42.1217 32 40 32C37.8783 32 35.8434 32.8429 34.3431 34.3431C32.8429 35.8434 32 37.8783 32 40C32 42.1217 32.8429 44.1566 34.3431 45.6569C35.8434 47.1571 37.8783 48 40 48Z" fill="white"/>
</svg>
