<svg width="544" height="80" viewBox="0 0 544 80" fill="none" xmlns="http://www.w3.org/2000/svg">
<rect width="544" height="80" rx="40" fill="black" fill-opacity="0.5"/>
<g clip-path="url(#clip0_12_4112)">
<path d="M69.7164 51.4805C71.224 47.8407 72 43.9397 72 40C72 32.0435 68.8393 24.4129 63.2132 18.7868C57.5871 13.1607 49.9565 10 42 10C34.0435 10 26.4129 13.1607 20.7868 18.7868C15.1607 24.4129 12 32.0435 12 40C12 43.9397 12.776 47.8407 14.2836 51.4805C15.7913 55.1203 18.001 58.4274 20.7868 61.2132C23.5726 63.999 26.8797 66.2087 30.5195 67.7164C34.1593 69.224 38.0603 70 42 70C45.9397 70 49.8407 69.224 53.4805 67.7164C57.1203 66.2087 60.4274 63.999 63.2132 61.2132C65.999 58.4274 68.2087 55.1203 69.7164 51.4805Z" fill="#5061D0"/>
<path d="M33 49.6V30.4C33 30.1613 33.0948 29.9324 33.2636 29.7636C33.4324 29.5948 33.6613 29.5 33.9 29.5H38.1C38.3387 29.5 38.5676 29.5948 38.7364 29.7636C38.9052 29.9324 39 30.1613 39 30.4V49.6C39 49.8387 38.9052 50.0676 38.7364 50.2364C38.5676 50.4052 38.3387 50.5 38.1 50.5H33.9C33.6613 50.5 33.4324 50.4052 33.2636 50.2364C33.0948 50.0676 33 49.8387 33 49.6ZM45 49.6V30.4C45 30.1613 45.0948 29.9324 45.2636 29.7636C45.4324 29.5948 45.6613 29.5 45.9 29.5H50.1C50.3387 29.5 50.5676 29.5948 50.7364 29.7636C50.9052 29.9324 51 30.1613 51 30.4V49.6C51 49.8387 50.9052 50.0676 50.7364 50.2364C50.5676 50.4052 50.3387 50.5 50.1 50.5H45.9C45.6613 50.5 45.4324 50.4052 45.2636 50.2364C45.0948 50.0676 45 49.8387 45 49.6Z" fill="white" stroke="white" stroke-width="1.5"/>
</g>
<path d="M103.7 40.488C103.7 41.3653 103.604 42.126 103.413 42.77C103.226 43.4093 102.97 43.939 102.643 44.359C102.316 44.779 101.929 45.0917 101.481 45.297C101.038 45.5023 100.562 45.605 100.053 45.605C99.5397 45.605 99.0613 45.5023 98.618 45.297C98.1793 45.0917 97.7967 44.779 97.47 44.359C97.1433 43.939 96.8867 43.4093 96.7 42.77C96.5133 42.126 96.42 41.3653 96.42 40.488C96.42 39.6107 96.5133 38.85 96.7 38.206C96.8867 37.562 97.1433 37.03 97.47 36.61C97.7967 36.1853 98.1793 35.8703 98.618 35.665C99.0613 35.4597 99.5397 35.357 100.053 35.357C100.562 35.357 101.038 35.4597 101.481 35.665C101.929 35.8703 102.316 36.1853 102.643 36.61C102.97 37.03 103.226 37.562 103.413 38.206C103.604 38.85 103.7 39.6107 103.7 40.488ZM102.405 40.488C102.405 39.7227 102.34 39.081 102.209 38.563C102.083 38.0403 101.91 37.6203 101.691 37.303C101.476 36.9857 101.227 36.7593 100.942 36.624C100.657 36.484 100.361 36.414 100.053 36.414C99.745 36.414 99.4487 36.484 99.164 36.624C98.8793 36.7593 98.6297 36.9857 98.415 37.303C98.2003 37.6203 98.0277 38.0403 97.897 38.563C97.771 39.081 97.708 39.7227 97.708 40.488C97.708 41.2533 97.771 41.895 97.897 42.413C98.0277 42.931 98.2003 43.3487 98.415 43.666C98.6297 43.9833 98.8793 44.212 99.164 44.352C99.4487 44.4873 99.745 44.555 100.053 44.555C100.361 44.555 100.657 44.4873 100.942 44.352C101.227 44.212 101.476 43.9833 101.691 43.666C101.91 43.3487 102.083 42.931 102.209 42.413C102.34 41.895 102.405 41.2533 102.405 40.488ZM111.821 40.488C111.821 41.3653 111.725 42.126 111.534 42.77C111.347 43.4093 111.091 43.939 110.764 44.359C110.437 44.779 110.05 45.0917 109.602 45.297C109.159 45.5023 108.683 45.605 108.174 45.605C107.661 45.605 107.182 45.5023 106.739 45.297C106.3 45.0917 105.918 44.779 105.591 44.359C105.264 43.939 105.008 43.4093 104.821 42.77C104.634 42.126 104.541 41.3653 104.541 40.488C104.541 39.6107 104.634 38.85 104.821 38.206C105.008 37.562 105.264 37.03 105.591 36.61C105.918 36.1853 106.3 35.8703 106.739 35.665C107.182 35.4597 107.661 35.357 108.174 35.357C108.683 35.357 109.159 35.4597 109.602 35.665C110.05 35.8703 110.437 36.1853 110.764 36.61C111.091 37.03 111.347 37.562 111.534 38.206C111.725 38.85 111.821 39.6107 111.821 40.488ZM110.526 40.488C110.526 39.7227 110.461 39.081 110.33 38.563C110.204 38.0403 110.031 37.6203 109.812 37.303C109.597 36.9857 109.348 36.7593 109.063 36.624C108.778 36.484 108.482 36.414 108.174 36.414C107.866 36.414 107.57 36.484 107.285 36.624C107 36.7593 106.751 36.9857 106.536 37.303C106.321 37.6203 106.149 38.0403 106.018 38.563C105.892 39.081 105.829 39.7227 105.829 40.488C105.829 41.2533 105.892 41.895 106.018 42.413C106.149 42.931 106.321 43.3487 106.536 43.666C106.751 43.9833 107 44.212 107.285 44.352C107.57 44.4873 107.866 44.555 108.174 44.555C108.482 44.555 108.778 44.4873 109.063 44.352C109.348 44.212 109.597 43.9833 109.812 43.666C110.031 43.3487 110.204 42.931 110.33 42.413C110.461 41.895 110.526 41.2533 110.526 40.488ZM113.138 44.73C113.138 44.6087 113.159 44.4943 113.201 44.387C113.248 44.2797 113.309 44.1863 113.383 44.107C113.463 44.0277 113.556 43.9647 113.663 43.918C113.771 43.8713 113.885 43.848 114.006 43.848C114.128 43.848 114.242 43.8713 114.349 43.918C114.457 43.9647 114.55 44.0277 114.629 44.107C114.709 44.1863 114.769 44.2797 114.811 44.387C114.858 44.4943 114.881 44.6087 114.881 44.73C114.881 44.856 114.858 44.9727 114.811 45.08C114.769 45.1827 114.709 45.2737 114.629 45.353C114.55 45.4323 114.457 45.493 114.349 45.535C114.242 45.5817 114.128 45.605 114.006 45.605C113.885 45.605 113.771 45.5817 113.663 45.535C113.556 45.493 113.463 45.4323 113.383 45.353C113.309 45.2737 113.248 45.1827 113.201 45.08C113.159 44.9727 113.138 44.856 113.138 44.73ZM113.138 39.48C113.138 39.3587 113.159 39.2443 113.201 39.137C113.248 39.0297 113.309 38.9363 113.383 38.857C113.463 38.7777 113.556 38.7147 113.663 38.668C113.771 38.6213 113.885 38.598 114.006 38.598C114.128 38.598 114.242 38.6213 114.349 38.668C114.457 38.7147 114.55 38.7777 114.629 38.857C114.709 38.9363 114.769 39.0297 114.811 39.137C114.858 39.2443 114.881 39.3587 114.881 39.48C114.881 39.606 114.858 39.7227 114.811 39.83C114.769 39.9327 114.709 40.0237 114.629 40.103C114.55 40.1823 114.457 40.2453 114.349 40.292C114.242 40.334 114.128 40.355 114.006 40.355C113.885 40.355 113.771 40.334 113.663 40.292C113.556 40.2453 113.463 40.1823 113.383 40.103C113.309 40.0237 113.248 39.9327 113.201 39.83C113.159 39.7227 113.138 39.606 113.138 39.48ZM123.47 40.488C123.47 41.3653 123.374 42.126 123.183 42.77C122.996 43.4093 122.739 43.939 122.413 44.359C122.086 44.779 121.699 45.0917 121.251 45.297C120.807 45.5023 120.331 45.605 119.823 45.605C119.309 45.605 118.831 45.5023 118.388 45.297C117.949 45.0917 117.566 44.779 117.24 44.359C116.913 43.939 116.656 43.4093 116.47 42.77C116.283 42.126 116.19 41.3653 116.19 40.488C116.19 39.6107 116.283 38.85 116.47 38.206C116.656 37.562 116.913 37.03 117.24 36.61C117.566 36.1853 117.949 35.8703 118.388 35.665C118.831 35.4597 119.309 35.357 119.823 35.357C120.331 35.357 120.807 35.4597 121.251 35.665C121.699 35.8703 122.086 36.1853 122.413 36.61C122.739 37.03 122.996 37.562 123.183 38.206C123.374 38.85 123.47 39.6107 123.47 40.488ZM122.175 40.488C122.175 39.7227 122.109 39.081 121.979 38.563C121.853 38.0403 121.68 37.6203 121.461 37.303C121.246 36.9857 120.996 36.7593 120.712 36.624C120.427 36.484 120.131 36.414 119.823 36.414C119.515 36.414 119.218 36.484 118.934 36.624C118.649 36.7593 118.399 36.9857 118.185 37.303C117.97 37.6203 117.797 38.0403 117.667 38.563C117.541 39.081 117.478 39.7227 117.478 40.488C117.478 41.2533 117.541 41.895 117.667 42.413C117.797 42.931 117.97 43.3487 118.185 43.666C118.399 43.9833 118.649 44.212 118.934 44.352C119.218 44.4873 119.515 44.555 119.823 44.555C120.131 44.555 120.427 44.4873 120.712 44.352C120.996 44.212 121.246 43.9833 121.461 43.666C121.68 43.3487 121.853 42.931 121.979 42.413C122.109 41.895 122.175 41.2533 122.175 40.488ZM128.231 35.357C128.655 35.357 129.047 35.4177 129.407 35.539C129.766 35.6603 130.074 35.833 130.331 36.057C130.592 36.281 130.795 36.5517 130.94 36.869C131.084 37.1863 131.157 37.5387 131.157 37.926C131.157 38.2433 131.115 38.528 131.031 38.78C130.951 39.0273 130.835 39.2467 130.681 39.438C130.531 39.6247 130.349 39.7833 130.135 39.914C129.92 40.0447 129.68 40.1497 129.414 40.229C130.067 40.4017 130.557 40.691 130.884 41.097C131.215 41.503 131.381 42.0117 131.381 42.623C131.381 43.085 131.292 43.5003 131.115 43.869C130.942 44.2377 130.704 44.5527 130.401 44.814C130.097 45.0707 129.743 45.269 129.337 45.409C128.935 45.5443 128.504 45.612 128.042 45.612C127.51 45.612 127.055 45.5467 126.677 45.416C126.299 45.2807 125.979 45.0963 125.718 44.863C125.456 44.6297 125.242 44.3543 125.074 44.037C124.906 43.715 124.763 43.3673 124.647 42.994L125.179 42.77C125.277 42.728 125.375 42.707 125.473 42.707C125.566 42.707 125.648 42.728 125.718 42.77C125.792 42.8073 125.848 42.868 125.886 42.952C125.895 42.9707 125.904 42.9917 125.914 43.015C125.923 43.0337 125.932 43.0547 125.942 43.078C126.007 43.2133 126.086 43.3673 126.18 43.54C126.273 43.708 126.399 43.8667 126.558 44.016C126.716 44.1653 126.912 44.2913 127.146 44.394C127.384 44.4967 127.678 44.548 128.028 44.548C128.378 44.548 128.683 44.492 128.945 44.38C129.211 44.2633 129.43 44.114 129.603 43.932C129.78 43.75 129.913 43.547 130.002 43.323C130.09 43.099 130.135 42.8773 130.135 42.658C130.135 42.3873 130.097 42.14 130.023 41.916C129.953 41.692 129.822 41.4983 129.631 41.335C129.444 41.1717 129.183 41.0433 128.847 40.95C128.515 40.8567 128.088 40.81 127.566 40.81V39.907C127.99 39.9023 128.352 39.8557 128.651 39.767C128.954 39.6783 129.201 39.557 129.393 39.403C129.584 39.249 129.722 39.0647 129.806 38.85C129.894 38.6353 129.939 38.3973 129.939 38.136C129.939 37.8467 129.892 37.5947 129.799 37.38C129.71 37.1653 129.586 36.988 129.428 36.848C129.269 36.708 129.08 36.603 128.861 36.533C128.646 36.463 128.413 36.428 128.161 36.428C127.909 36.428 127.675 36.4653 127.461 36.54C127.246 36.6147 127.055 36.7197 126.887 36.855C126.723 36.9857 126.586 37.1443 126.474 37.331C126.362 37.513 126.278 37.7113 126.222 37.926C126.184 38.0613 126.128 38.1593 126.054 38.22C125.979 38.2807 125.883 38.311 125.767 38.311C125.743 38.311 125.718 38.311 125.69 38.311C125.666 38.3063 125.638 38.3017 125.606 38.297L124.955 38.185C125.02 37.7277 125.146 37.324 125.333 36.974C125.519 36.6193 125.755 36.323 126.04 36.085C126.329 35.847 126.658 35.6673 127.027 35.546C127.4 35.42 127.801 35.357 128.231 35.357Z" fill="white"/>
<rect x="153" y="38" width="310" height="4" rx="2" fill="white" fill-opacity="0.3"/>
<rect x="153" y="38" width="134" height="4" rx="2" fill="white"/>
<rect x="284" y="28" width="8" height="24" rx="4" fill="white"/>
<rect x="284.5" y="28.5" width="7" height="23" rx="3.5" stroke="white" stroke-opacity="0.05"/>
<path d="M490.7 40.488C490.7 41.3653 490.604 42.126 490.413 42.77C490.226 43.4093 489.97 43.939 489.643 44.359C489.316 44.779 488.929 45.0917 488.481 45.297C488.038 45.5023 487.562 45.605 487.053 45.605C486.54 45.605 486.061 45.5023 485.618 45.297C485.179 45.0917 484.797 44.779 484.47 44.359C484.143 43.939 483.887 43.4093 483.7 42.77C483.513 42.126 483.42 41.3653 483.42 40.488C483.42 39.6107 483.513 38.85 483.7 38.206C483.887 37.562 484.143 37.03 484.47 36.61C484.797 36.1853 485.179 35.8703 485.618 35.665C486.061 35.4597 486.54 35.357 487.053 35.357C487.562 35.357 488.038 35.4597 488.481 35.665C488.929 35.8703 489.316 36.1853 489.643 36.61C489.97 37.03 490.226 37.562 490.413 38.206C490.604 38.85 490.7 39.6107 490.7 40.488ZM489.405 40.488C489.405 39.7227 489.34 39.081 489.209 38.563C489.083 38.0403 488.91 37.6203 488.691 37.303C488.476 36.9857 488.227 36.7593 487.942 36.624C487.657 36.484 487.361 36.414 487.053 36.414C486.745 36.414 486.449 36.484 486.164 36.624C485.879 36.7593 485.63 36.9857 485.415 37.303C485.2 37.6203 485.028 38.0403 484.897 38.563C484.771 39.081 484.708 39.7227 484.708 40.488C484.708 41.2533 484.771 41.895 484.897 42.413C485.028 42.931 485.2 43.3487 485.415 43.666C485.63 43.9833 485.879 44.212 486.164 44.352C486.449 44.4873 486.745 44.555 487.053 44.555C487.361 44.555 487.657 44.4873 487.942 44.352C488.227 44.212 488.476 43.9833 488.691 43.666C488.91 43.3487 489.083 42.931 489.209 42.413C489.34 41.895 489.405 41.2533 489.405 40.488ZM498.821 40.488C498.821 41.3653 498.725 42.126 498.534 42.77C498.347 43.4093 498.091 43.939 497.764 44.359C497.437 44.779 497.05 45.0917 496.602 45.297C496.159 45.5023 495.683 45.605 495.174 45.605C494.661 45.605 494.182 45.5023 493.739 45.297C493.3 45.0917 492.918 44.779 492.591 44.359C492.264 43.939 492.008 43.4093 491.821 42.77C491.634 42.126 491.541 41.3653 491.541 40.488C491.541 39.6107 491.634 38.85 491.821 38.206C492.008 37.562 492.264 37.03 492.591 36.61C492.918 36.1853 493.3 35.8703 493.739 35.665C494.182 35.4597 494.661 35.357 495.174 35.357C495.683 35.357 496.159 35.4597 496.602 35.665C497.05 35.8703 497.437 36.1853 497.764 36.61C498.091 37.03 498.347 37.562 498.534 38.206C498.725 38.85 498.821 39.6107 498.821 40.488ZM497.526 40.488C497.526 39.7227 497.461 39.081 497.33 38.563C497.204 38.0403 497.031 37.6203 496.812 37.303C496.597 36.9857 496.348 36.7593 496.063 36.624C495.778 36.484 495.482 36.414 495.174 36.414C494.866 36.414 494.57 36.484 494.285 36.624C494 36.7593 493.751 36.9857 493.536 37.303C493.321 37.6203 493.149 38.0403 493.018 38.563C492.892 39.081 492.829 39.7227 492.829 40.488C492.829 41.2533 492.892 41.895 493.018 42.413C493.149 42.931 493.321 43.3487 493.536 43.666C493.751 43.9833 494 44.212 494.285 44.352C494.57 44.4873 494.866 44.555 495.174 44.555C495.482 44.555 495.778 44.4873 496.063 44.352C496.348 44.212 496.597 43.9833 496.812 43.666C497.031 43.3487 497.204 42.931 497.33 42.413C497.461 41.895 497.526 41.2533 497.526 40.488ZM500.138 44.73C500.138 44.6087 500.159 44.4943 500.201 44.387C500.248 44.2797 500.309 44.1863 500.383 44.107C500.463 44.0277 500.556 43.9647 500.663 43.918C500.771 43.8713 500.885 43.848 501.006 43.848C501.128 43.848 501.242 43.8713 501.349 43.918C501.457 43.9647 501.55 44.0277 501.629 44.107C501.709 44.1863 501.769 44.2797 501.811 44.387C501.858 44.4943 501.881 44.6087 501.881 44.73C501.881 44.856 501.858 44.9727 501.811 45.08C501.769 45.1827 501.709 45.2737 501.629 45.353C501.55 45.4323 501.457 45.493 501.349 45.535C501.242 45.5817 501.128 45.605 501.006 45.605C500.885 45.605 500.771 45.5817 500.663 45.535C500.556 45.493 500.463 45.4323 500.383 45.353C500.309 45.2737 500.248 45.1827 500.201 45.08C500.159 44.9727 500.138 44.856 500.138 44.73ZM500.138 39.48C500.138 39.3587 500.159 39.2443 500.201 39.137C500.248 39.0297 500.309 38.9363 500.383 38.857C500.463 38.7777 500.556 38.7147 500.663 38.668C500.771 38.6213 500.885 38.598 501.006 38.598C501.128 38.598 501.242 38.6213 501.349 38.668C501.457 38.7147 501.55 38.7777 501.629 38.857C501.709 38.9363 501.769 39.0297 501.811 39.137C501.858 39.2443 501.881 39.3587 501.881 39.48C501.881 39.606 501.858 39.7227 501.811 39.83C501.769 39.9327 501.709 40.0237 501.629 40.103C501.55 40.1823 501.457 40.2453 501.349 40.292C501.242 40.334 501.128 40.355 501.006 40.355C500.885 40.355 500.771 40.334 500.663 40.292C500.556 40.2453 500.463 40.1823 500.383 40.103C500.309 40.0237 500.248 39.9327 500.201 39.83C500.159 39.7227 500.138 39.606 500.138 39.48ZM510.47 40.488C510.47 41.3653 510.374 42.126 510.183 42.77C509.996 43.4093 509.739 43.939 509.413 44.359C509.086 44.779 508.699 45.0917 508.251 45.297C507.807 45.5023 507.331 45.605 506.823 45.605C506.309 45.605 505.831 45.5023 505.388 45.297C504.949 45.0917 504.566 44.779 504.24 44.359C503.913 43.939 503.656 43.4093 503.47 42.77C503.283 42.126 503.19 41.3653 503.19 40.488C503.19 39.6107 503.283 38.85 503.47 38.206C503.656 37.562 503.913 37.03 504.24 36.61C504.566 36.1853 504.949 35.8703 505.388 35.665C505.831 35.4597 506.309 35.357 506.823 35.357C507.331 35.357 507.807 35.4597 508.251 35.665C508.699 35.8703 509.086 36.1853 509.413 36.61C509.739 37.03 509.996 37.562 510.183 38.206C510.374 38.85 510.47 39.6107 510.47 40.488ZM509.175 40.488C509.175 39.7227 509.109 39.081 508.979 38.563C508.853 38.0403 508.68 37.6203 508.461 37.303C508.246 36.9857 507.996 36.7593 507.712 36.624C507.427 36.484 507.131 36.414 506.823 36.414C506.515 36.414 506.218 36.484 505.934 36.624C505.649 36.7593 505.399 36.9857 505.185 37.303C504.97 37.6203 504.797 38.0403 504.667 38.563C504.541 39.081 504.478 39.7227 504.478 40.488C504.478 41.2533 504.541 41.895 504.667 42.413C504.797 42.931 504.97 43.3487 505.185 43.666C505.399 43.9833 505.649 44.212 505.934 44.352C506.218 44.4873 506.515 44.555 506.823 44.555C507.131 44.555 507.427 44.4873 507.712 44.352C507.996 44.212 508.246 43.9833 508.461 43.666C508.68 43.3487 508.853 42.931 508.979 42.413C509.109 41.895 509.175 41.2533 509.175 40.488ZM518.479 35.469V36.029C518.479 36.1877 518.46 36.3183 518.423 36.421C518.39 36.5237 518.355 36.61 518.318 36.68L514.167 45.059C514.106 45.1803 514.022 45.2853 513.915 45.374C513.807 45.458 513.663 45.5 513.481 45.5H512.592L516.806 37.226C516.866 37.1093 516.927 37.002 516.988 36.904C517.053 36.806 517.125 36.7127 517.205 36.624H511.969C511.889 36.624 511.817 36.5937 511.752 36.533C511.691 36.4677 511.661 36.3953 511.661 36.316V35.469H518.479Z" fill="white"/>
<defs>
<clipPath id="clip0_12_4112">
<rect width="60" height="60" fill="white" transform="translate(12 10)"/>
</clipPath>
</defs>
</svg>
